# xmcd
#
# Track frame offsets: 
#        150
#        13230
#        34542
#        53572
#        69370
#        87497
#        101470
#        112585
#        129032
#        151627
#        164747
#        180340
#
# Disc length: 2524 seconds
#
# Revision: 0
# Processed by: cddbd v1.5.2PL0 Copyright (c) Steve Scherf et al.
# Submitted via: ExactAudioCopy v1.0b3
#
DISCID=8009da0c
DTITLE=Flattop Tom and His Jump Cats - Jumpin' Blues For Your Dancin' Sh
DTITLE=oes
DYEAR=1993
DGENRE=Blues
TTITLE0=Choo-Choo-Cha Boogie
TTITLE1=Calidonia
TTITLE2=Love Me
TTITLE3=Jump Jive and Wail
TTITLE4=Single Bed
TTITLE5=Flattop
TTITLE6=Let The four Winds Blow
TTITLE7=Crazy 'Bout You Baby
TTITLE8=Heritage Blues Orchestra - Going Uptown
TTITLE9=Fairlane Ford
TTITLE10=Jump Cat Mambo
TTITLE11=Heritage Blues Orchestra - Levee Camp Holler
EXTD=
EXTT0=
EXTT1=
EXTT2=
EXTT3=
EXTT4=
EXTT5=
EXTT6=
EXTT7=
EXTT8=
EXTT9=
EXTT10=
EXTT11=
PLAYORDER=
